<svg t="1602727543275" class="icon" viewBox="0 0 1024 1024" version="1.1" xmlns="http://www.w3.org/2000/svg" p-id="2417" width="200" height="200"><path d="M680.96 536.32L294.826667 149.76C281.6 136.533333 281.6 115.2 294.826667 101.546667c13.226667-13.226667 34.986667-13.226667 48.213333 0l386.133333 386.133333c13.226667 13.226667 13.226667 34.986667 0 48.213333-13.226667 13.653333-34.986667 13.653333-48.213333 0.426667z" fill="#40edc0" p-id="2418"></path><path d="M294.826667 874.24l386.133333-386.133333c13.226667-13.226667 34.986667-13.226667 48.213333 0 13.226667 13.226667 13.226667 34.986667 0 48.213333l-386.133333 386.133333c-13.226667 13.226667-34.986667 13.226667-48.213333 0-13.226667-13.653333-13.226667-34.986667 0-48.213333z" fill="#40edc0" p-id="2419"></path></svg>