<svg t="1600157998387" class="icon" viewBox="0 0 1024 1024" version="1.1" xmlns="http://www.w3.org/2000/svg" p-id="4212" width="200" height="200"><path d="M258.698 193.045l511.997 0 0 63.999L258.698 257.044 258.698 193.045zM256.991 321.668l511.996 0 0 63.999L256.991 385.667 256.991 321.668zM256.991 449.66l131.311 0 0 64L256.991 513.66 256.991 449.66zM256.991 577.662l57.948 0 0 64-57.948 0L256.991 577.662zM898.695 0 130.701 0C95.356 0 66.702 28.654 66.702 64l0 895.992c0 35.345 28.654 63.999 63.999 63.999l299.4-0.328 0-63.999-299.4 0.328 0-895.992 767.995 0 0 386.556 63.999 0L962.695 64C962.693 28.654 934.035 0 898.695 0L898.695 0zM720.25 526.31l146.029 92.904L720.25 712.115l-146.027-92.902L720.25 526.31M720.25 464.98 477.808 619.214 720.25 773.447l242.444-154.233L720.25 464.98 720.25 464.98zM962.694 679.968 720.25 834.2 477.808 679.968l0 63.133L720.25 897.334l242.444-154.233 0-38.423L962.694 679.968zM962.694 806.631 720.25 960.865 477.808 806.631l0 63.134 242.442 154.233 242.444-154.233L962.694 806.631 962.694 806.631z" p-id="4213"></path></svg>