<svg t="1600157921724" class="icon" viewBox="0 0 1024 1024" version="1.1" xmlns="http://www.w3.org/2000/svg" p-id="3900" width="200" height="200"><path d="M564.7 346H138.5v-37.1h426.2v-60H120.5c-23.2 0-42 18.8-42 42V364c0 23.2 18.8 42 42 42h444.2v-60zM903.5 248.9H698.3v60h187.3V346H698.3v60h205.3c23.2 0 42-18.8 42-42v-73.1c-0.1-23.1-18.9-42-42.1-42z" p-id="3901"></path><path d="M686.3 800.8H576.7c-23.2 0-42-18.8-42-42V103.2c0-23.2 18.8-42 42-42h109.6c23.2 0 42 18.8 42 42v655.6c0 23.2-18.9 42-42 42z m-91.6-60h73.6V121.2h-73.6v619.6z" p-id="3902"></path><path d="M172.263 261.94l397.911-160.865 18.74 46.355-397.911 160.864zM668.652 137.184l31.51-38.825 207.87 168.704-31.51 38.825zM299 563.4h-73.1c-23.2 0-42-18.8-42-42V388c0-23.2 18.8-42 42-42H299c23.2 0 42 18.8 42 42v133.3c0 23.2-18.9 42.1-42 42.1z m-55.2-60H281V406h-37.1v97.4z" p-id="3903"></path><path d="M262.8 799.4h-0.5c-61.6-0.3-91.3-48.7-93.3-53.4-1.8-4.2-10-24.7 8.3-35.7 17.4-10.8 31.5 6.2 34.9 10.8s-0.1-0.2-0.1-0.2c0.7 1.2 17.4 28.3 50.4 28.4h0.3c15.8 0 31.1-6.7 41-19.7 9.2-12 12.3-27.6 8.6-41-10.3-37.4-51.1-39.6-51.5-39.6-13.4-0.6-23.9-11.6-23.9-25v-63.4c0-14.8 12.1-26.7 26.9-25.6 12.9 1 23.1 11.7 23.1 24.9v43.3s0 0.1 0.1 0.1c5.2 1.5 10.9 3.5 16.8 6.1 28.9 13.1 48.5 35.9 56.7 65.9 7.9 28.7 1.6 60.1-17.2 84.7-19.2 25.4-49.4 39.4-80.6 39.4zM763.3 962.8H499.6c-23.2 0-42-18.8-42-42v-138c0-23.2 18.8-42 42-42h263.6c23.2 0 42 18.8 42 42v137.9c0.1 23.2-18.8 42.1-41.9 42.1z m-245.7-60h227.6v-102H517.6v102z" p-id="3904"></path></svg>