<svg t="1603537839938" class="icon" viewBox="0 0 1024 1024" version="1.1" xmlns="http://www.w3.org/2000/svg" p-id="1298" width="200" height="200"><path d="M810.67 701.44c-20.62 0-37.33 16.71-37.33 37.33v71.89c0 20.58-16.75 37.33-37.33 37.33H213.33c-20.59 0-37.33-16.75-37.33-37.33V213.33c0-20.59 16.75-37.33 37.33-37.33H736c20.59 0 37.33 16.75 37.33 37.33v65.57c0 20.62 16.71 37.33 37.33 37.33S848 299.52 848 278.9v-65.57c0-61.76-50.24-112-112-112H213.33c-61.76 0-112 50.24-112 112v597.33c0 61.76 50.24 112 112 112H736c61.76 0 112-50.24 112-112v-71.89c0-20.61-16.71-37.33-37.33-37.33z m73.42-204.37L709.87 366.4a18.68 18.68 0 0 0-11.2-3.73c-10.31 0-18.67 8.36-18.67 18.67v93.33H474.67c-20.62 0-37.33 16.71-37.33 37.33 0 20.62 16.71 37.33 37.33 37.33H680v93.33c0 4.04 1.31 7.97 3.73 11.2 6.19 8.25 17.89 9.92 26.13 3.73l174.22-130.67a18.57 18.57 0 0 0 3.73-3.73c6.2-8.24 4.53-19.94-3.72-26.12z" p-id="1299"></path></svg>