<svg class="icon" viewBox="0 0 1059 1024" xmlns="http://www.w3.org/2000/svg" width="200" height="200"><path d="M93.034 946.483A31.034 31.034 0 0 1 62 915.448V170.621a93.103 93.103 0 0 1 93.103-93.104h434.483a93.103 93.103 0 0 1 93.104 93.104v186.207H899.93a93.103 93.103 0 0 1 93.103 93.103v465.517A31.034 31.034 0 0 1 962 946.483H93.034zm496.552-806.897H155.103a31.034 31.034 0 0 0-31.034 31.035v713.793h93.103V698.207a62.069 62.069 0 0 1 62.07-62.07h186.206a62.069 62.069 0 0 1 62.07 62.07v186.207h93.103V170.62a31.034 31.034 0 0 0-31.035-31.035zm-124.138 558.62H279.241v186.208h186.207V698.207zm434.483-279.31H682.69v465.518h248.276V449.93a31.034 31.034 0 0 0-31.035-31.034zm-403.448 31.035a31.034 31.034 0 0 1 3.63 61.852l-3.63.217H248.207a31.034 31.034 0 0 1-3.631-61.852l3.63-.217h248.277zm0-186.207a31.034 31.034 0 0 1 3.63 61.852l-3.63.217H248.207a31.034 31.034 0 0 1-3.631-61.852l3.63-.217h248.277z"/></svg>