<svg t="1603537968648" class="icon" viewBox="0 0 1024 1024" version="1.1" xmlns="http://www.w3.org/2000/svg" p-id="1673" width="200" height="200"><path d="M512 437.33c102.93 0 186.67-83.74 186.67-186.67S614.93 64 512 64c-102.93 0-186.67 83.74-186.67 186.67S409.07 437.33 512 437.33z m0-298.66c61.76 0 112 50.24 112 112s-50.24 112-112 112-112-50.24-112-112 50.24-112 112-112zM717.33 512H306.67c-113.22 0-205.33 92.11-205.33 205.33s92.11 205.33 205.33 205.33h410.67c113.22 0 205.33-92.11 205.33-205.33S830.55 512 717.33 512z m0 336H306.67C234.62 848 176 789.38 176 717.33s58.62-130.67 130.67-130.67h410.67c72.05 0 130.67 58.62 130.67 130.67S789.38 848 717.33 848z" p-id="1674"></path></svg>