<svg t="1600222140910" class="icon" viewBox="0 0 1024 1024" version="1.1" xmlns="http://www.w3.org/2000/svg" p-id="5706" width="200" height="200"><path d="M928 504c0-12.6-7-24-17.9-28.9L711.3 386l198.8-89.2c10.8-4.9 17.9-16.2 17.9-28.9 0-12.6-7-24-17.9-28.9l-387-173.6c-7.2-3.2-15.2-3.2-22.3 0L113.9 239C103 243.9 96 255.3 96 267.9c0 12.6 7 24 17.9 28.9L312.7 386l-198.8 89.2C103 480 96 491.4 96 504s7 24 17.9 28.9l214.3 96.2-214.3 96.2C103 730.1 96 741.5 96 754.1c0 12.6 7 24 17.9 28.9l387 173.6c3.6 1.6 7.4 2.4 11.2 2.4s7.6-0.8 11.2-2.4l387-173.6c10.8-4.9 17.9-16.2 17.9-28.9 0-12.6-7-24-17.9-28.9L696 629l214.3-96.2C921 528 928 516.7 928 504zM200.5 267.9l289.2-129.8c14.3-6.4 30.4-6.4 44.7 0l289.2 129.8-187.7 84.2-75.5 33.9-48.4 21.7-48.4-21.7-75.5-33.9-187.6-84.2z m623 486.2L534.3 883.9c-14.3 6.4-30.4 6.4-44.7 0L200.5 754.1l203.2-91.2 97.2 43.6c3.6 1.6 7.4 2.4 11.2 2.4s7.6-0.8 11.2-2.4l97.2-43.6 203 91.2zM620.4 595.2l-75.5 33.9-32.9 14.7-32.9-14.8-75.5-33.9L200.5 504l187.7-84.2 112.7 50.6c3.6 1.6 7.4 2.4 11.2 2.4s7.6-0.8 11.2-2.4L636 419.8 823.5 504l-203.1 91.2z"   p-id="5707"></path></svg>