<svg t="1600221963119" class="icon" viewBox="0 0 1024 1024" version="1.1" xmlns="http://www.w3.org/2000/svg" p-id="3849" width="200" height="200"><path d="M882.1914 744.849921c-60.501005 0-112.097749 38.645092-131.425292 92.560342H244.912146c-80.468136 0-145.955927-62.61964-145.955926-139.570043 0-77.000371 65.487791-139.570043 145.955926-139.570043h136.312143c19.497433 53.585462 70.934281 91.950735 131.205434 91.950735 60.241173 0 111.688014-38.375266 131.205434-91.950735h136.452052C914.210763 558.280171 1023.340425 453.92743 1023.340425 325.660102S914.210763 93.040033 780.077216 93.040033H273.093982c-19.197627-54.165089-70.944274-93.040033-131.595182-93.040033C64.508422 0 1.928757 62.569672 1.928757 139.560049c0 76.950403 62.579665 139.570043 139.570043 139.570043 60.640915 0 112.377569-38.894931 131.585189-93.040033h506.993227c80.468136 0 145.955927 62.61964 145.955927 139.570043 0 77.000371-65.487791 139.570043-145.955927 139.570043H644.414655c-18.887826-54.734722-70.924287-94.139324-131.974938-94.139325-61.090625 0-113.097105 39.394609-131.974938 94.139325H244.912146c-134.133547 0-243.263209 104.352741-243.263209 232.620069 0 128.267328 109.129663 232.620069 243.263209 232.620069h505.524174c19.057717 54.394941 70.9043 93.529717 131.75508 93.529717 76.950403 0 139.570043-62.61964 139.570043-139.570043 0.009994-77.000371-62.61964-139.580036-139.570043-139.580036zM141.428845 207.036558c-37.166045 0-67.376574-30.230515-67.376574-67.376573 0-37.166045 30.210528-67.376574 67.376574-67.376574 37.146058 0 67.376574 30.210528 67.376573 67.376574 0 37.146058-30.230515 67.376574-67.376573 67.376573z m371.000878 236.257725c37.146058 0 67.376574 30.210528 67.376574 67.376574 0 37.146058-30.230515 67.376574-67.376574 67.376573-37.166045 0-67.376574-30.230515-67.376574-67.376573 0.009994-37.176039 30.210528-67.376574 67.376574-67.376574z m369.761677 508.502254c-37.166045 0-67.376574-30.230515-67.376574-67.376573 0-37.166045 30.210528-67.376574 67.376574-67.376574 37.146058 0 67.376574 30.210528 67.376574 67.376574 0 37.146058-30.230515 67.376574-67.376574 67.376573z" p-id="3850"></path></svg>