<svg t="1604303316048" class="icon" viewBox="0 0 1024 1024" version="1.1" xmlns="http://www.w3.org/2000/svg" p-id="1298" width="200" height="200"><path d="M885.33 750.55h-69.44c0.06-0.88 0.11-1.77 0.11-2.67V481.22c0-81.2-31.62-157.54-89.04-214.96-48.52-48.52-110.56-78.62-177.63-86.78v-40.81c0-20.62-16.71-37.33-37.33-37.33-20.62 0-37.33 16.71-37.33 37.33v40.81c-67.06 8.16-129.1 38.26-177.63 86.78C239.62 323.67 208 400.01 208 481.22v266.67c0 0.9 0.04 1.79 0.11 2.67h-69.44c-20.62 0-37.33 16.71-37.33 37.33s16.71 37.33 37.33 37.33h746.67c20.62 0 37.33-16.71 37.33-37.33s-16.72-37.34-37.34-37.34z m-602.77 0c0.06-0.88 0.11-1.77 0.11-2.67V481.22c0-61.26 23.85-118.85 67.17-162.16s100.9-67.18 162.16-67.18c61.26 0 118.85 23.85 162.16 67.17 43.32 43.31 67.17 100.91 67.17 162.16v266.67c0 0.9 0.04 1.79 0.11 2.67H282.56z m286.89 133.33h-114.9c-20.62 0-37.33 16.71-37.33 37.33s16.71 37.33 37.33 37.33h114.9c20.62 0 37.33-16.71 37.33-37.33s-16.71-37.33-37.33-37.33z" p-id="1299"></path></svg>