<svg t="1603541712480" class="icon" viewBox="0 0 1024 1024" version="1.1" xmlns="http://www.w3.org/2000/svg" p-id="1798" width="200" height="200"><path d="M428 92H148c-30.93 0-56 25.07-56 56v280c0 30.93 25.07 56 56 56h280c30.93 0 56-25.07 56-56V148c0-30.93-25.07-56-56-56z m448 0H596c-30.93 0-56 25.07-56 56v280c0 30.93 25.07 56 56 56h280c30.93 0 56-25.07 56-56V148c0-30.93-25.07-56-56-56zM428 540H148c-30.93 0-56 25.07-56 56v280c0 30.93 25.07 56 56 56h280c30.93 0 56-25.07 56-56V596c0-30.93-25.07-56-56-56z m448 0H596c-30.93 0-56 25.07-56 56v280c0 30.93 25.07 56 56 56h280c30.93 0 56-25.07 56-56V596c0-30.93-25.07-56-56-56z" p-id="1799"></path></svg>