<svg class="icon" viewBox="0 0 1024 1024" xmlns="http://www.w3.org/2000/svg" width="200" height="200"><path d="M801.292 1024H222.701c-71.003 0-128.572-57.29-128.572-127.973V128.196C94.129 57.513 151.698.223 222.7.223h385.73c43.02-.683 60.152.912 64.29.912V.223l257.15 255.939v639.865c0 70.683-57.569 127.973-128.579 127.973zM672.72 64.206v127.973c0 35.33 28.778 63.983 64.283 63.983h128.579L672.72 64.206zm192.862 255.946h-128.58c-71.01 0-128.571-57.29-128.571-127.973 0 0-1.498-51.356-.913-127.973H222.701c-35.505 0-64.29 28.645-64.29 63.99v767.831c0 35.338 28.785 63.99 64.29 63.99h578.591c35.505 0 64.29-28.652 64.29-63.99V320.152z"/></svg>