<svg t="1604657191395" class="icon" viewBox="0 0 1024 1024" version="1.1" xmlns="http://www.w3.org/2000/svg" p-id="1328" width="200" height="200"><path d="M780.8 377.6v-59.73c0-34.65-7.27-68.25-21.6-99.87-13.73-30.31-33.33-57.46-58.24-80.71C650.33 90.03 583.22 64 512 64s-138.33 26.03-188.96 73.28c-24.91 23.25-44.51 50.41-58.24 80.71-14.33 31.62-21.6 65.22-21.6 99.87v59.73c-74.11 0-134.4 60.29-134.4 134.4v313.6c0 74.11 60.29 134.4 134.4 134.4h537.6c74.11 0 134.4-60.29 134.4-134.4V512c0-74.11-60.29-134.4-134.4-134.4z m-448-59.73c0-90.58 80.39-164.27 179.2-164.27 98.81 0 179.2 73.69 179.2 164.27v59.73H332.8v-59.73zM825.6 825.6c0 24.7-20.1 44.8-44.8 44.8H243.2c-24.7 0-44.8-20.1-44.8-44.8V512c0-24.7 20.1-44.8 44.8-44.8h537.6c24.7 0 44.8 20.1 44.8 44.8v313.6zM512 556.8c-24.74 0-44.8 20.06-44.8 44.8V736c0 24.74 20.06 44.8 44.8 44.8s44.8-20.06 44.8-44.8V601.6c0-24.74-20.06-44.8-44.8-44.8z" p-id="1329"></path></svg>