<svg t="1600654497768" class="icon" viewBox="0 0 1024 1024" version="1.1" xmlns="http://www.w3.org/2000/svg" p-id="11773" width="200" height="200"><path d="M56.277834 315.451182c74.223808 74.223808 190.198507 74.223808 264.422315 0s74.223808-190.198507 0-264.422314C260.393305-4.638988 172.252533-13.916964 102.667714 23.19494l106.696723 106.696723-78.862795 78.862796L23.804918 102.057735c-37.111904 69.58482-27.833928 157.725591 32.472916 213.393447zM343.895088 343.28511c-18.555952 13.916964-37.111904 27.833928-60.306843 37.111904l27.833928 27.833928 296.89523 296.89523 27.833928 27.833928c9.277976-18.555952 23.19494-41.750892 41.750892-55.667856s37.111904-32.472916 55.667855-41.750891l-27.833927-27.833928-292.256243-296.895231-32.472916-27.833927c-9.277976 23.19494-23.19494 41.750892-37.111904 60.306843zM965.519477 705.126172c-74.223808-74.223808-190.198507-74.223808-264.422314 0s-74.223808 190.198507 0 264.422315c60.306844 60.306844 148.447615 69.58482 218.032434 32.472916l-106.696723-106.696724 78.862796-78.862795 106.696723 106.696723c37.111904-74.223808 27.833928-162.364579-32.472916-218.032435z" p-id="11774"></path></svg>