<svg t="1603594327114" class="icon" viewBox="0 0 1024 1024" version="1.1" xmlns="http://www.w3.org/2000/svg" p-id="1618" width="200" height="200"><path d="M792 64c61.86 0 112 50.14 112 112v699.07c0 30.93-25.07 56-56 56-7.58 0-15.09-1.54-22.06-4.53L512 792 198.06 926.55c-28.43 12.18-61.35-0.99-73.53-29.41a55.971 55.971 0 0 1-4.53-22.06V176c0-61.86 50.14-112 112-112h560zM512 232l-65.83 133.39-147.2 21.39 106.52 103.83-25.15 146.61L512 568l131.66 69.22-25.15-146.61 106.52-103.83-147.2-21.39L512 232z" p-id="1619"></path></svg>