<svg t="1600654636337" class="icon" viewBox="0 0 1024 1024" version="1.1" xmlns="http://www.w3.org/2000/svg" p-id="12082" width="200" height="200"><path d="M365.713545 437.416342a48.702026 48.702026 0 0 0-48.74712 48.747121v487.583938a48.769667 48.769667 0 1 0 97.49424 0V486.163463a48.702026 48.702026 0 0 0-48.74712-48.747121zM73.163182 632.42737a48.74712 48.74712 0 0 0-48.769668 48.769668v292.550363a48.769667 48.769667 0 0 0 97.516788 0V681.197038a48.74712 48.74712 0 0 0-48.74712-48.769668zM950.814271 47.349192a48.74712 48.74712 0 0 0-48.74712 48.769667v877.651089a48.792215 48.792215 0 0 0 97.516787 0V96.096312A48.724573 48.724573 0 0 0 950.814271 47.349192zM658.263908 291.129887A48.724573 48.724573 0 0 0 609.516788 339.899555v633.847846a48.769667 48.769667 0 1 0 97.49424 0V339.899555a48.74712 48.74712 0 0 0-48.74712-48.769668z"  p-id="12083"></path></svg>