<svg class="icon" viewBox="0 0 1024 1024" xmlns="http://www.w3.org/2000/svg" width="200" height="200"><path d="M232.2 638.9v151.3h-84.8V638.9h84.8m44.4-60H103c-8.6 0-15.6 7-15.6 15.6v240.2c0 8.6 7 15.6 15.6 15.6h173.6c8.6 0 15.6-7 15.6-15.6V594.5c0-8.6-7-15.6-15.6-15.6zm550.8 60v151.3h-84.8V638.9h84.8m44.4-60H698.2c-8.6 0-15.6 7-15.6 15.6v240.2c0 8.6 7 15.6 15.6 15.6h173.6c8.6 0 15.6-7 15.6-15.6V594.5c0-8.6-7-15.6-15.6-15.6zM528.5 210.3v99.9h-84.8v-99.9h84.8m46-60H397.8c-7.8 0-14 6.3-14 14v191.8c0 7.7 6.3 14 14 14h176.7c7.8 0 14-6.3 14-14V164.3c0-7.8-6.3-14-14-14z"/><path d="M785.2 600.3c-14 0-25.4-9.6-25.4-21.4v-66c0-37.6-26.9-69.3-63.3-78.6h88.7c14 0 25.4 9.6 25.4 21.4V579c0 11.7-11.4 21.3-25.4 21.3zm-593.6 0c-14 0-25.4-9.6-25.4-21.4V455.7c0-11.8 11.4-21.4 25.4-21.4h88.7c-36.4 9.3-63.3 41-63.3 78.6v66c0 11.8-11.4 21.4-25.4 21.4z"/><path d="M780.6 464.3v5.1l-2.4-5.1h2.4m-582 0c-.9 1.7-1.7 3.4-2.4 5.1v-5.1h2.4m586.6-60H191.6c-30.6 0-55.4 23-55.4 51.4V579c0 28.4 24.8 51.4 55.4 51.4s55.4-23 55.4-51.4v-66c0-28.4 24.8-51.4 55.4-51.4h372c30.6 0 55.4 23 55.4 51.4v66c0 28.4 24.8 51.4 55.4 51.4s55.4-23 55.4-51.4V455.7c0-28.4-24.8-51.4-55.4-51.4z"/><path d="M490.2 317.9H482c-12.3 0-22.3 10-22.3 22.3v88.4c0 12.3 10 22.3 22.3 22.3h8.2c12.3 0 22.3-10 22.3-22.3v-88.4c0-12.3-10-22.3-22.3-22.3z"/></svg>