<svg t="1600223094819" class="icon" viewBox="0 0 1024 1024" version="1.1" xmlns="http://www.w3.org/2000/svg" p-id="7530" width="200" height="200"><path d="M852.153 163.004H736.204c-0.681-46.657-38.378-84.514-84.987-85.398-4.558-43.546-41.485-77.6-86.219-77.6H458.999c-44.732 0-81.66 34.054-86.218 77.6-46.605 0.888-84.307 38.744-84.987 85.398H171.846c-46.965 0-85.038 38.073-85.038 85.039v690.912c0 46.966 38.073 85.039 85.038 85.039h680.307c46.964 0 85.038-38.073 85.038-85.039V248.043c0-46.966-38.074-85.039-85.038-85.039z m-504.392 59.999v-58.721c0-0.429 0.012-0.854 0.032-1.278 0.669-14.127 12.371-25.415 26.661-25.415h27.854c16.567 0 29.999-13.431 29.999-30v-20.89c0-14.719 11.975-26.693 26.692-26.693h105.999c14.719 0 26.693 11.975 26.693 26.693v20.891c0 16.568 13.432 30 30 30h27.854c14.29 0 25.99 11.288 26.66 25.415 0.02 0.424 0.032 0.849 0.032 1.278V233.311c0 14.718-11.974 26.692-26.692 26.692H374.454c-14.719 0-26.693-11.974-26.693-26.692v-10.308z m529.43 715.952c0 13.806-11.231 25.039-25.038 25.039H171.846c-13.807 0-25.039-11.233-25.039-25.039V248.043c0-13.807 11.232-25.04 25.039-25.04h115.916v10.307c0 47.802 38.89 86.691 86.692 86.691h275.091c47.803 0 86.691-38.889 86.691-86.691v-10.307h115.917c13.807 0 25.038 11.233 25.038 25.04v690.912z" p-id="7531"></path><path d="M730.361 464.642L565.955 632.965l-71.392-95.748-0.092-0.124-0.269-0.36c-0.085-0.114-0.177-0.222-0.264-0.335-0.279-0.365-0.56-0.729-0.853-1.086-0.207-0.253-0.419-0.497-0.631-0.744-0.207-0.24-0.412-0.481-0.625-0.718-0.315-0.35-0.637-0.688-0.961-1.023-0.095-0.099-0.184-0.2-0.28-0.298l-0.102-0.098a38.767 38.767 0 0 0-1.207-1.161c-0.08-0.074-0.157-0.15-0.237-0.223a38.892 38.892 0 0 0-1.309-1.138c-0.075-0.063-0.148-0.127-0.223-0.189a38.894 38.894 0 0 0-1.293-1.014c-0.104-0.079-0.208-0.162-0.313-0.24a40.389 40.389 0 0 0-1.188-0.838c-0.16-0.11-0.318-0.224-0.479-0.331-0.334-0.221-0.674-0.431-1.013-0.642-0.234-0.146-0.466-0.295-0.703-0.436-0.261-0.154-0.526-0.299-0.79-0.446-0.321-0.181-0.642-0.364-0.967-0.535-0.177-0.093-0.357-0.179-0.535-0.269-0.415-0.211-0.831-0.42-1.251-0.615-0.092-0.042-0.185-0.08-0.277-0.122a40.55 40.55 0 0 0-1.534-0.664l-0.037-0.014a39.9 39.9 0 0 0-9.202-2.489c-0.086-0.013-0.172-0.021-0.258-0.033a39.903 39.903 0 0 0-1.614-0.195c-0.208-0.021-0.417-0.031-0.625-0.049-0.417-0.034-0.835-0.07-1.253-0.092-0.337-0.018-0.675-0.021-1.012-0.03-0.291-0.008-0.582-0.021-0.874-0.022-0.446-0.002-0.893 0.012-1.34 0.024-0.184 0.005-0.367 0.004-0.551 0.012-0.522 0.022-1.043 0.061-1.565 0.104-0.111 0.009-0.221 0.014-0.332 0.023-0.557 0.05-1.113 0.116-1.668 0.189-0.078 0.011-0.155 0.018-0.232 0.028-0.547 0.075-1.092 0.167-1.636 0.266-0.09 0.017-0.181 0.029-0.271 0.046-0.507 0.096-1.011 0.207-1.515 0.322-0.13 0.029-0.261 0.055-0.391 0.086-0.443 0.105-0.883 0.227-1.324 0.349-0.193 0.053-0.387 0.101-0.579 0.157-0.364 0.106-0.725 0.226-1.087 0.344-0.27 0.087-0.54 0.169-0.809 0.263-0.28 0.097-0.557 0.205-0.835 0.31-0.349 0.13-0.698 0.257-1.044 0.397-0.2 0.081-0.397 0.17-0.596 0.255-0.421 0.178-0.841 0.358-1.258 0.552-0.131 0.062-0.261 0.129-0.392 0.191-0.478 0.229-0.953 0.464-1.424 0.712l-0.253 0.14c-0.51 0.274-1.016 0.559-1.516 0.856-0.064 0.038-0.127 0.079-0.191 0.118-0.511 0.308-1.016 0.627-1.516 0.96-0.081 0.054-0.16 0.11-0.24 0.165-0.468 0.317-0.932 0.644-1.389 0.982l-0.113 0.08c-0.108 0.081-0.21 0.168-0.318 0.25-0.372 0.284-0.743 0.57-1.107 0.869-0.25 0.204-0.491 0.414-0.733 0.623s-0.486 0.415-0.725 0.631c-0.352 0.316-0.692 0.642-1.03 0.968-0.096 0.093-0.195 0.18-0.291 0.273l-0.297 0.293-0.14 0.139-196.675 194.334c-15.714 15.527-15.866 40.854-0.339 56.567 7.825 7.92 18.137 11.886 28.455 11.886 10.156 0 20.318-3.845 28.113-11.547l164.411-162.453 72.189 96.818c0.484 0.651 0.99 1.292 1.52 1.92 0.133 0.158 0.272 0.307 0.407 0.463 0.333 0.383 0.669 0.764 1.02 1.137 0.268 0.286 0.541 0.562 0.815 0.838 0.141 0.142 0.273 0.289 0.417 0.429 0.088 0.086 0.18 0.164 0.269 0.249a38.418 38.418 0 0 0 1.578 1.435c0.34 0.294 0.681 0.585 1.028 0.865 0.213 0.171 0.43 0.334 0.645 0.5 0.346 0.268 0.689 0.537 1.042 0.791 0.336 0.243 0.679 0.471 1.021 0.701 0.401 0.271 0.805 0.535 1.214 0.79a38.3 38.3 0 0 0 1.294 0.781c0.205 0.117 0.414 0.228 0.622 0.341 0.445 0.245 0.893 0.482 1.345 0.709a40.051 40.051 0 0 0 2.066 0.958c0.154 0.066 0.309 0.134 0.464 0.198 0.594 0.247 1.192 0.479 1.796 0.696l0.202 0.075c1.409 0.498 2.839 0.915 4.285 1.251 0.075 0.018 0.15 0.031 0.226 0.049a38.763 38.763 0 0 0 2.393 0.462c0.517 0.085 1.034 0.158 1.553 0.223 0.224 0.027 0.446 0.055 0.67 0.079 0.487 0.051 0.975 0.091 1.464 0.125 0.235 0.017 0.47 0.037 0.706 0.05 0.557 0.028 1.114 0.042 1.672 0.048 0.143 0.001 0.285 0.012 0.428 0.012 0.629 0 1.258-0.02 1.886-0.05l0.095-0.005c0.598-0.03 1.194-0.074 1.791-0.131l0.178-0.018a40.5 40.5 0 0 0 1.832-0.223l0.021-0.003a39.834 39.834 0 0 0 3.829-0.753l0.001-0.001a38.621 38.621 0 0 0 2.072-0.578c0.476-0.146 0.95-0.302 1.422-0.466 0.141-0.049 0.281-0.097 0.421-0.147a39.37 39.37 0 0 0 1.384-0.53c0.124-0.05 0.249-0.096 0.372-0.146a40.49 40.49 0 0 0 1.587-0.701c0.274-0.128 0.544-0.266 0.815-0.4 0.253-0.125 0.506-0.249 0.756-0.38 0.319-0.167 0.636-0.341 0.951-0.517a36.036 36.036 0 0 0 1.586-0.929c0.148-0.092 0.296-0.188 0.444-0.282a39.82 39.82 0 0 0 4.711-3.52c0.88-0.76 1.725-1.548 2.522-2.368l197.02-201.712c15.436-15.803 15.138-41.128-0.666-56.564-15.808-15.435-41.132-15.138-56.569 0.665z" p-id="7532"></path></svg>