<svg t="1600223284142" class="icon" viewBox="0 0 1024 1024" version="1.1" xmlns="http://www.w3.org/2000/svg" p-id="3684" width="200" height="200"><path d="M805.312 446.272l116.544-115.264-1.28-3.136A448 448 0 0 1 162.56 792.448l64.128-63.488 9.28 11.776a358.4 358.4 0 0 0 630.912-278.528l-52.992 30.464-8.64-46.4zM619.136 320l-57.792 134.912h107.136l-171.52 272.32h-57.728L504.256 554.88H384L483.2 320h135.936zM512 64a447.168 447.168 0 0 1 348.16 166.08l-64.128 63.424-8.064-10.24A358.4 358.4 0 0 0 157.056 561.92l52.992-30.528 8.192 44.032-116.928 115.712-5.888-13.888A448 448 0 0 1 512 64z"  p-id="3685"></path></svg>