<svg t="1603259252135" class="icon" viewBox="0 0 1024 1024" version="1.1" xmlns="http://www.w3.org/2000/svg" p-id="1423" width="200" height="200"><path d="M914.76 908.64c-13.61-96.77-61.49-185.7-134.81-250.4-43.82-38.67-94.99-67.06-149.89-83.82 26.34-12.9 50.66-30.2 72.01-51.55C752.84 472.1 780.8 404.6 780.8 332.8s-27.96-139.3-78.73-190.07C651.3 91.96 583.8 64 512 64s-139.3 27.96-190.07 78.73C271.16 193.5 243.2 261 243.2 332.8s27.96 139.3 78.73 190.07c21.35 21.35 45.68 38.65 72.03 51.56-54.94 16.78-106.15 45.21-149.99 83.93-73.35 64.77-121.2 153.79-134.74 250.64-3.43 24.5 13.66 47.15 38.17 50.57 2.1 0.29 4.19 0.44 6.26 0.44 21.99 0 41.18-16.2 44.31-38.6 10.58-75.69 47.98-145.26 105.31-195.89 57.76-51.02 131.9-79.11 208.74-79.11 76.8 0 150.9 28.06 208.64 79.02C777.98 776 815.4 845.5 826.04 921.12c3.45 24.5 26.11 41.57 50.6 38.12 24.5-3.44 41.57-26.1 38.12-50.6zM332.8 332.8c0-98.81 80.39-179.2 179.2-179.2 98.81 0 179.2 80.39 179.2 179.2S610.81 512 512 512c-98.81 0-179.2-80.39-179.2-179.2z" p-id="1424"></path></svg>